<?xml version="1.0" encoding="UTF-8" standalone="no"?>
<svg
   data-name="Layer 1"
   width="924.25571"
   height="530.59141"
   viewBox="0 0 924.25571 530.59141"
   version="1.1"
   id="svg54"
   sodipodi:docname="fingerprint.svg"
   inkscape:version="1.2 (56b05e47e7, 2022-06-09, custom)"
   xmlns:inkscape="http://www.inkscape.org/namespaces/inkscape"
   xmlns:sodipodi="http://sodipodi.sourceforge.net/DTD/sodipodi-0.dtd"
   xmlns="http://www.w3.org/2000/svg"
   xmlns:svg="http://www.w3.org/2000/svg">
  <defs
     id="defs58" />
  <sodipodi:namedview
     id="namedview56"
     pagecolor="#ffffff"
     bordercolor="#666666"
     borderopacity="1.0"
     inkscape:showpageshadow="2"
     inkscape:pageopacity="0.0"
     inkscape:pagecheckerboard="0"
     inkscape:deskcolor="#d1d1d1"
     showgrid="false"
     inkscape:zoom="0.74629889"
     inkscape:cx="308.18751"
     inkscape:cy="215.06129"
     inkscape:window-width="1366"
     inkscape:window-height="704"
     inkscape:window-x="0"
     inkscape:window-y="27"
     inkscape:window-maximized="1"
     inkscape:current-layer="svg54" />
  <path
     d="M 249.04102,236.92738 A 16.74665,16.74665 0 0 1 227.70219,217.2509 C 237.44575,176.71499 274.49534,77.584204 409.4682,35.889894 467.93361,17.829401 524.00232,17.521099 576.04878,34.966727 c 42.81675,14.292631 71.24079,36.658784 84.83734,47.469117 a 16.608718,16.608718 0 0 1 2.72038,23.330206 q -0.0508,0.0642 -0.10224,0.12787 a 16.999853,16.999853 0 0 1 -23.68641,2.68872 C 615.18425,89.173421 540.43028,30.208669 419.27442,67.634803 300.97335,104.17904 268.83807,189.65832 260.50302,224.63056 a 16.497561,16.497561 0 0 1 -11.462,12.2968 z"
     fill="#ff9600"
     id="path18"
     style="stroke-width:1.34883;fill:#000080" />
  <path
     d="m 616.92147,466.52399 a 16.653176,16.653176 0 0 1 -4.13775,0.77782 C 507.33871,472.98104 440.25025,385.38012 437.49587,381.72788 l -0.51059,-0.84302 c -1.6812,-2.60783 -42.27487,-64.36964 -24.40415,-113.42028 8.20841,-22.42444 26.36217,-38.16435 54.11038,-46.73601 25.80701,-7.97201 46.92451,-5.61422 64.89912,7.221 14.73844,10.45757 24.18407,26.05257 33.33915,41.11192 19.04076,31.26892 30.70984,47.17779 66.90159,37.9992 15.89099,-4.03325 23.31087,-16.45739 26.70063,-26.13546 9.12666,-26.3356 1.03801,-62.23862 -20.36188,-89.40143 -27.6475,-35.23981 -105.01947,-93.771121 -200.48251,-64.28173 -40.76592,12.59295 -74.12848,37.40901 -96.47069,71.57962 -18.5088,28.35825 -29.26875,63.57923 -29.50464,96.42482 -0.3714,61.15705 49.75046,141.61555 50.22576,142.34436 a 16.577425,16.577425 0 0 1 -5.26818,22.84448 q -0.0767,0.0482 -0.15419,0.0952 a 16.973982,16.973982 0 0 1 -23.24712,-5.20244 c -2.2623,-3.6792 -55.78183,-89.46753 -55.35066,-160.14967 0.60023,-76.61349 47.15699,-168.04872 149.92819,-199.795702 47.50316,-14.674143 97.42411,-12.207777 144.40261,7.053582 36.41193,15.02025 70.11093,39.88485 92.39078,68.27684 28.45702,36.24061 38.48281,83.67862 25.52815,120.70336 -8.63644,24.68312 -26.51638,41.7144 -50.27813,47.80375 -61.92998,15.75335 -86.19067,-23.91 -103.88445,-52.8431 -18.16908,-29.66191 -28.21911,-43.56913 -59.62142,-33.86868 -17.24274,5.32644 -27.86538,13.86152 -32.33304,26.12417 -6.07948,16.76328 -0.31778,38.24963 5.58616,53.31257 q 0.0917,0.23622 0.18388,0.4713 a 136.15949,136.15949 0 0 0 34.54788,50.24735 c 24.29533,22.43592 69.39885,54.42132 126.88441,51.33707 a 16.602257,16.602257 0 0 1 17.59968,15.54091 q 0.005,0.0796 0.009,0.15927 a 16.966779,16.966779 0 0 1 -11.94027,16.82263 z"
     fill="#ff9600"
     id="path20"
     style="stroke-width:1.34883;fill:#808080" />
  <path
     d="m 489.05468,498.01766 a 17.016241,17.016241 0 0 1 -13.31366,-1.39113 C 423.73391,467.16036 387.22434,427.52823 360.93386,371.98041 l -0.10588,-0.3426 c -16.56928,-37.03587 -26.54366,-93.62107 -4.54182,-141.44612 16.24289,-35.2886 46.73217,-60.09267 90.46701,-73.60274 51.72816,-15.97929 99.89332,-4.21447 139.42387,33.8591 a 206.60117,206.60117 0 0 1 43.14108,61.10004 16.882599,16.882599 0 0 1 -31.0645,13.22361 173.00209,173.00209 0 0 0 -36.37276,-50.93228 C 531.4109,184.8502 495.99028,176.27851 456.48045,188.48337 c -34.14287,10.54703 -57.65342,29.19255 -69.68866,55.42597 -17.35608,37.75892 -8.42018,84.90816 4.54637,113.92562 23.18163,49.12805 55.33639,83.97621 101.10964,109.86422 a 16.530351,16.530351 0 0 1 6.27825,22.51864 q -0.0634,0.11235 -0.12855,0.22377 a 16.95294,16.95294 0 0 1 -9.5429,7.57607 z"
     fill="#08009c"
     id="path22"
     style="stroke-width:1.34883;fill:#000080" />
  <circle
     cx="494.5314"
     cy="310.44687"
     r="21.512585"
     fill="#e6e6e6"
     id="circle24"
     style="stroke-width:1.34883;fill:#000080;fill-opacity:1" />
</svg>
